<svg width="24" height="20" viewBox="0 0 24 20" fill="none" xmlns="http://www.w3.org/2000/svg">
<path d="M16.0404 1.71927C17.2798 1.71927 18.3987 2.22636 19.187 3.04048C20.1676 2.85073 21.092 2.50498 21.9226 2.02611C21.6012 3.00188 20.9176 3.82048 20.0285 4.33836C20.8985 4.23598 21.7314 4.01248 22.5043 3.67836C21.9249 4.51611 21.1955 5.25373 20.3533 5.84323C20.3611 6.02211 20.3657 6.20286 20.3657 6.38283C20.3657 11.9077 16.0295 18.28 8.10053 18.28C5.66678 18.28 3.39991 17.5856 1.49343 16.3998C1.83449 16.4395 2.17757 16.4593 2.52093 16.459C4.54031 16.459 6.39991 15.7912 7.87553 14.6684C5.98816 14.6362 4.39516 13.4261 3.84878 11.7659C4.11637 11.8161 4.38804 11.8413 4.66028 11.8413C5.05216 11.8413 5.43391 11.7907 5.79466 11.6947C3.82291 11.3118 2.33678 9.62168 2.33678 7.59476V7.54116C2.91841 7.85466 3.58253 8.04291 4.29016 8.06466C3.13291 7.31389 2.37203 6.03591 2.37203 4.58501C2.37203 3.81814 2.58506 3.09964 2.95593 2.48426C5.08143 5.01251 8.25768 6.67751 11.8408 6.85264C11.7669 6.54736 11.7287 6.22489 11.7287 5.90051C11.7287 3.59089 13.6588 1.71927 16.0404 1.71927ZM22.5042 3.67913H22.508H22.5042ZM16.0403 0.21936C13.0951 0.21936 10.655 2.37113 10.2793 5.15138C7.86951 4.66726 5.67801 3.39151 4.10338 1.51988C3.96262 1.35243 3.78693 1.2178 3.58864 1.12543C3.39034 1.03306 3.17424 0.985182 2.95549 0.985157C2.9162 0.985166 2.87693 0.986667 2.83776 0.989657C2.6 1.0087 2.37018 1.08406 2.16732 1.20953C1.96446 1.33499 1.79437 1.50694 1.67113 1.71116C1.14819 2.57886 0.871882 3.5728 0.871985 4.5859C0.871985 5.26203 0.993461 5.92053 1.22373 6.53628C0.978485 6.8089 0.83711 7.16553 0.83711 7.54203V7.59565C0.83711 9.06492 1.41798 10.4284 2.38249 11.4503C2.32699 11.7075 2.33936 11.9768 2.42411 12.2348C2.75676 13.2469 3.36238 14.1191 4.14763 14.7836C3.62036 14.901 3.07626 14.9602 2.52086 14.9602C2.22724 14.9602 1.94148 14.9441 1.67111 14.9111C1.61111 14.9036 1.55186 14.901 1.49223 14.901C0.862235 14.901 0.29036 15.2981 0.0781096 15.9037C-0.154765 16.5675 0.103633 17.3032 0.70061 17.6748C2.91613 19.0534 5.47511 19.7812 8.10011 19.7812C16.6321 19.7812 21.7644 13.1021 21.8641 6.57786C22.5642 5.99862 23.1827 5.32728 23.7027 4.58211C23.9002 4.32281 24.0069 4.00578 24.0065 3.67986C24.0065 3.16948 23.7511 2.71836 23.3623 2.44721C23.5306 1.87009 23.3386 1.24534 22.8699 0.863586C22.5961 0.640837 22.2605 0.527587 21.923 0.527587C21.6599 0.52734 21.4015 0.596547 21.1737 0.728211C20.678 1.01398 20.1477 1.24011 19.5894 1.40288C18.5791 0.642758 17.3266 0.219384 16.0403 0.21936Z" fill="#F3F3F3"/>
</svg>
