<svg width="70" height="70" viewBox="0 0 70 70" fill="none" xmlns="http://www.w3.org/2000/svg">
<rect width="70" height="70" rx="35" fill="#F3F3F3" fill-opacity="0.9"/>
<path d="M29.536 44.886C29.6978 44.9701 29.8794 45.0086 30.0614 44.9974C30.2434 44.9861 30.4189 44.9255 30.569 44.822L43.569 35.822C43.7018 35.73 43.8104 35.6071 43.8854 35.464C43.9604 35.3208 43.9995 35.1616 43.9995 35C43.9995 34.8384 43.9604 34.6792 43.8854 34.536C43.8104 34.3929 43.7018 34.27 43.569 34.178L30.569 25.178C30.4191 25.0735 30.2435 25.0121 30.0611 25.0005C29.8787 24.9889 29.6967 25.0277 29.5349 25.1125C29.373 25.1973 29.2375 25.3249 29.1432 25.4814C29.0489 25.6379 28.9994 25.8173 29 26V44C29 44.1825 29.0499 44.3616 29.1444 44.5178C29.2389 44.674 29.3743 44.8013 29.536 44.886ZM31 27.909L41.243 35L31 42.091V27.909Z" fill="#100F0F"/>
</svg>
