<svg width="24" height="18" viewBox="0 0 24 18" fill="none" xmlns="http://www.w3.org/2000/svg">
<path d="M22.0485 1.44595C21.3983 0.977951 19.5863 0.356201 11.9937 0.356201C3.8573 0.356201 2.65017 1.0702 2.26278 1.30383C0.201031 2.54243 0.00528121 8.02605 -0.0126953 9.13792C0.0120546 10.6065 0.249429 15.4923 2.2613 16.701C2.64795 16.9338 3.8483 17.6437 11.9937 17.6437C19.5911 17.6437 21.4009 17.0249 22.0485 16.5588C23.8058 15.2947 24.0079 10.9413 24.0127 9.11884C24.0082 7.65334 23.8545 2.74685 22.0485 1.44597L22.0485 1.44595ZM21.1725 15.3416C20.9111 15.5298 19.4103 16.1437 11.9936 16.1437C4.82325 16.1437 3.31875 15.5872 3.0345 15.4158C2.31075 14.9815 1.54688 12.6764 1.4869 9.13379C1.54615 5.59905 2.32053 3.01868 3.03605 2.58968C3.32105 2.41755 4.83115 1.85655 11.9936 1.85655C19.4043 1.85655 20.9092 2.47457 21.1725 2.66357C21.8149 3.12632 22.5026 5.56232 22.5127 9.12369C22.5026 12.7409 21.8104 14.8826 21.1725 15.3416H21.1725ZM16.8847 8.41002L10.1363 4.26888C10.0225 4.20028 9.8926 4.16312 9.75977 4.16121C9.62693 4.1593 9.49597 4.1927 9.38028 4.258C9.26449 4.32331 9.16812 4.41821 9.10105 4.53299C9.03397 4.64777 8.9986 4.77831 8.99854 4.91125V13.195C8.99863 13.3939 9.07768 13.5846 9.21831 13.7252C9.35894 13.8658 9.54965 13.9449 9.74853 13.945C9.88504 13.945 10.019 13.9078 10.1359 13.8374L16.8844 9.69475C17.1094 9.55865 17.247 9.31529 17.247 9.05239C17.247 8.7895 17.1098 8.5454 16.8848 8.41002H16.8847ZM10.4989 11.8664V6.2391L15.0458 9.05235L10.4989 11.8664Z" fill="#F3F3F3"/>
</svg>
